<?xml version="1.0" encoding="utf-8"?>
<!-- Generator: Adobe Illustrator 23.0.1, SVG Export Plug-In . SVG Version: 6.00 Build 0)  -->
<svg version="1.1" id="Livello_1" xmlns="http://www.w3.org/2000/svg" xmlns:xlink="http://www.w3.org/1999/xlink" x="0px" y="0px"
	 viewBox="0 0 85.25 101.29" style="enable-background:new 0 0 85.25 101.29;" xml:space="preserve">
<style type="text/css">
	.st0{fill:#FFFFFF;}
	.st1{fill:#ED2024;}
</style>
<polygon class="st0" points="85.25,101.29 7.63,101.29 7.63,7.5 67.47,7.5 85.25,22.5 "/>
<g>
	<polygon class="st0" points="77.62,93.79 0,93.79 0,0 59.83,0 77.62,15 	"/>
	<path d="M59.1,2l16.51,13.93v75.86H2V2H59.1 M59.83,0H0v93.79h77.62V15L59.83,0L59.83,0z"/>
</g>
<g>
	<rect x="7.57" y="26.28" width="60.09" height="2"/>
	<rect x="7.57" y="32.28" width="60.09" height="2"/>
	<rect x="7.57" y="38.28" width="60.09" height="2"/>
	<rect x="7.57" y="44.28" width="60.09" height="2"/>
	<rect x="7.57" y="50.28" width="60.09" height="2"/>
	<rect x="7.57" y="56.28" width="60.09" height="2"/>
	<rect x="7.57" y="62.28" width="60.09" height="2"/>
	<rect x="7.57" y="68.28" width="60.09" height="2"/>
	<rect x="7.57" y="74.28" width="60.09" height="2"/>
	<rect x="7.57" y="80.28" width="60.09" height="2"/>
	<rect x="6.87" y="14.5" width="40.09" height="2"/>
	<rect x="6.87" y="8.5" width="40.09" height="2"/>
</g>
<g>
	<g>
		<path d="M46.93,21.65c9.82,0,16.96,6.25,17.85,12.87c0.97,6.47-0.75,9.97-5.21,13.47c-3.12,2.9-4.76,4.84-4.98,6.99l-9.23,0.52
			c0.15-3.13,2.38-6.32,6.1-9.6c3.27-3.5,4.91-6.25,4.54-9.15c-0.45-2.97-3.64-6.99-9.89-6.99c-5.51,0-8.48,2.6-10.04,4.84
			l-2.6-7.89C34.73,25.14,38.08,21.65,46.93,21.65z M50.28,71.04l7.37-0.3c1.19,0.97,1.78,2.31,1.93,3.42
			c0.45,2.97-1.34,5.8-4.98,5.8c-3.2,0-5.21-2.23-5.58-4.76C48.79,73.58,49.38,72.09,50.28,71.04z"/>
		<path class="st1" d="M40.53,18.92c9.82,0,16.96,6.25,17.85,12.87c0.97,6.47-0.75,9.97-5.21,13.47c-3.12,2.9-4.76,4.84-4.98,6.99
			l-9.23,0.52c0.15-3.13,2.38-6.32,6.1-9.6c3.27-3.5,4.91-6.25,4.54-9.15c-0.45-2.97-3.64-6.99-9.89-6.99
			c-5.51,0-8.48,2.6-10.04,4.84l-2.6-7.89C28.33,22.42,31.68,18.92,40.53,18.92z M43.88,68.32l7.37-0.3
			c1.19,0.97,1.78,2.31,1.93,3.42c0.45,2.97-1.34,5.8-4.98,5.8c-3.2,0-5.21-2.23-5.58-4.76C42.39,70.85,42.98,69.36,43.88,68.32z"/>
	</g>
	<g>
		<path d="M17.02,28.73c-0.37-2.9,1.56-5.8,5.13-5.8c2.97,0,5.13,2.31,5.43,4.76c0.45,2.83-1.27,5.73-4.91,5.73
			C19.4,33.42,17.39,31.11,17.02,28.73z M19.54,41.75l9.15-0.59l5.65,40.47h-9.23L19.54,41.75z"/>
		<path class="st1" d="M10.62,25.11c-0.37-2.9,1.56-5.8,5.13-5.8c2.97,0,5.13,2.31,5.43,4.76c0.45,2.83-1.27,5.73-4.91,5.73
			C13,29.8,10.99,27.49,10.62,25.11z M13.15,38.13l9.15-0.59L27.95,78h-9.23L13.15,38.13z"/>
	</g>
</g>
<g>
	<polygon class="st0" points="59.83,0 77.62,15 59.83,15 	"/>
	<path d="M61.83,4.3L72.14,13H61.83V4.3 M59.83,0v15h17.78L59.83,0L59.83,0z"/>
</g>
</svg>
