<?xml version="1.0" encoding="utf-8"?>
<!-- Generator: Adobe Illustrator 23.0.1, SVG Export Plug-In . SVG Version: 6.00 Build 0)  -->
<svg version="1.1" id="Livello_1" xmlns="http://www.w3.org/2000/svg" xmlns:xlink="http://www.w3.org/1999/xlink" x="0px" y="0px"
	 viewBox="0 0 95.25 145.94" style="enable-background:new 0 0 95.25 145.94;" xml:space="preserve">
<style type="text/css">
	.st0{fill:#FFFFFF;}
	.st1{fill:#ED2024;}
</style>
<g>
	<g>
		<polygon class="st0" points="1,43.66 38.38,23.66 88.77,43.66 51.38,63.66 		"/>
		<path d="M51.38,64.66c-0.13,0-0.25-0.02-0.37-0.07l-50.38-20C0.27,44.45,0.02,44.11,0,43.72s0.18-0.75,0.53-0.94l37.38-20
			c0.26-0.14,0.57-0.16,0.84-0.05l50.38,20c0.36,0.14,0.61,0.48,0.63,0.87c0.02,0.39-0.18,0.75-0.53,0.94l-37.38,20
			C51.71,64.62,51.55,64.66,51.38,64.66z M3.37,43.53l47.95,19.03L86.4,43.8L38.45,24.76L3.37,43.53z"/>
	</g>
	<g>
		<g>
			<g>
				<polygon class="st0" points="22.61,24.79 33.22,18 40.34,22.34 29.98,27.96 				"/>
				<path d="M29.98,28.96c-0.13,0-0.27-0.03-0.4-0.08l-7.37-3.17c-0.34-0.15-0.57-0.47-0.6-0.84c-0.03-0.37,0.15-0.72,0.46-0.92
					l10.6-6.79c0.32-0.21,0.73-0.21,1.06-0.01l7.13,4.34c0.31,0.19,0.49,0.52,0.48,0.88c-0.01,0.36-0.21,0.68-0.52,0.85l-10.36,5.62
					C30.31,28.92,30.15,28.96,29.98,28.96z M24.74,24.61l5.19,2.23l8.4-4.56l-5.11-3.11L24.74,24.61z"/>
			</g>
			<g>
				<path class="st1" d="M17.46,6.05L20.1,26.2c1.14,6.34,7.55,9.97,14.02,9.97c5.41,0,10.32-1.14,12.89-3.42l2.7,6.69
					c-2.85,2.49-22.2,7.15-29.6,7.15C7.65,46.6,8.09,11.05,8.09,11.05L17.46,6.05z M47.86,21.07c0.21,1.92,0.14,4.2-0.07,5.2
					l-9.37,4.99l-6.43-11.47l-0.22-2.39c-0.64-4.84-6.66-7.99-11.22-8.92l9.37-4.99C40.67,4.63,46.65,12.53,47.86,21.07z"/>
				<path d="M20.11,47.6c-2.03,0-3.87-0.82-5.47-2.43C6.86,37.28,7.08,12.1,7.09,11.04c0-0.37,0.21-0.7,0.53-0.87l9.37-4.99
					c0.29-0.15,0.64-0.16,0.93-0.01c0.29,0.15,0.49,0.43,0.53,0.76l2.63,20.15c1.07,5.96,7.37,9.1,13.03,9.1
					c5.42,0,9.99-1.18,12.22-3.16c0.24-0.22,0.58-0.3,0.89-0.23c0.32,0.07,0.58,0.3,0.7,0.6l2.7,6.69c0.16,0.39,0.05,0.85-0.27,1.13
					C47.14,43.02,27.24,47.6,20.11,47.6z M9.09,11.65c0.01,3.85,0.39,25.45,6.97,32.11c1.22,1.24,2.54,1.84,4.04,1.84
					c7.19,0,24.4-4.24,28.38-6.52l-1.92-4.74c-2.79,1.81-7.22,2.83-12.45,2.83c-6.49,0-13.74-3.71-15.01-10.79L16.66,7.62
					L9.09,11.65z M38.42,32.26c-0.35,0-0.69-0.18-0.87-0.51l-6.43-11.47c-0.07-0.12-0.11-0.26-0.12-0.4l-0.22-2.39
					c-0.59-4.45-6.56-7.24-10.42-8.03c-0.41-0.08-0.73-0.42-0.79-0.84C19.5,8.21,19.71,7.8,20.08,7.6l9.37-4.99
					c0.18-0.09,0.38-0.13,0.58-0.11c10,1.06,17.39,8.3,18.83,18.44c0,0.01,0,0.02,0,0.03c0.21,1.9,0.17,4.32-0.09,5.52
					c-0.06,0.29-0.25,0.53-0.51,0.67l-9.37,4.99C38.74,32.23,38.58,32.26,38.42,32.26z M32.96,19.49l5.85,10.43l8.07-4.3
					c0.13-1.03,0.16-2.85-0.01-4.42c-1.03-7.25-5.98-15.4-16.75-16.68l-6.87,3.66c4.55,1.54,8.93,4.72,9.51,9.09L32.96,19.49z"/>
			</g>
			<g>
				<path class="st0" d="M8.09,11.05l2.63,20.15c1.14,6.34,7.55,9.97,14.02,9.97c5.41,0,10.32-1.14,12.89-3.42l2.7,6.69
					c-2.85,2.49-8.61,4.34-16.02,4.34c-12.46,0-21.5-7.55-23.14-19.36C0.05,21.51,2.54,14.61,8.09,11.05z M38.49,26.07
					c0.21,1.92,0.14,4.2-0.07,5.2l-14.88,0.21l-0.92-6.69l7.26,0.29c-0.64-4.84-4.2-8.33-8.76-9.26l-0.57-7.33
					C31.3,9.63,37.28,17.53,38.49,26.07z"/>
				<path d="M24.32,49.78c-12.95,0-22.42-7.94-24.13-20.23c-1.21-8.38,1.54-15.62,7.35-19.35C7.84,10.02,8.2,10,8.51,10.14
					c0.31,0.14,0.53,0.44,0.57,0.78l2.63,20.15c1.07,5.96,7.37,9.1,13.03,9.1c5.42,0,9.99-1.18,12.22-3.16
					c0.24-0.22,0.58-0.3,0.89-0.23c0.32,0.07,0.58,0.3,0.7,0.6l2.7,6.69c0.16,0.39,0.05,0.85-0.27,1.13
					C37.71,48.06,31.48,49.78,24.32,49.78z M7.32,12.85c-4.23,3.51-6.14,9.51-5.14,16.42c1.56,11.24,10.25,18.51,22.15,18.51
					c6.19,0,11.77-1.39,14.81-3.65l-1.94-4.8c-2.78,1.81-7.21,2.83-12.45,2.83c-6.49,0-13.74-3.71-15.01-10.79L7.32,12.85z
					 M23.54,32.48c-0.5,0-0.92-0.37-0.99-0.86l-0.92-6.69c-0.04-0.29,0.05-0.59,0.25-0.81c0.2-0.22,0.48-0.33,0.78-0.33l6,0.24
					c-0.94-3.66-3.87-6.44-7.74-7.23c-0.44-0.09-0.76-0.46-0.8-0.9l-0.57-7.33c-0.02-0.3,0.09-0.59,0.3-0.79
					c0.21-0.21,0.51-0.31,0.8-0.28c10,1.06,17.39,8.3,18.83,18.44c0,0.01,0,0.02,0,0.03c0.21,1.9,0.17,4.32-0.09,5.52
					c-0.1,0.46-0.5,0.78-0.96,0.79l-14.88,0.21C23.55,32.48,23.54,32.48,23.54,32.48z M23.77,25.83l0.64,4.63l13.14-0.19
					c0.1-1.06,0.1-2.67-0.05-4.08c-1-7.05-5.7-14.94-15.86-16.56l0.42,5.37c4.75,1.26,8.17,5.09,8.81,9.93
					c0.04,0.29-0.05,0.59-0.25,0.81s-0.49,0.34-0.78,0.33L23.77,25.83z"/>
			</g>
			<g>
				<polygon class="st1" points="37.64,37.74 47.01,32.75 49.71,39.44 40.34,44.44 				"/>
				<path d="M40.34,45.44c-0.12,0-0.23-0.02-0.34-0.06c-0.27-0.1-0.48-0.3-0.59-0.57l-2.7-6.69c-0.19-0.47,0.01-1.02,0.46-1.26
					l9.37-4.99c0.25-0.13,0.54-0.15,0.81-0.06c0.27,0.1,0.48,0.3,0.58,0.57l2.7,6.69c0.19,0.47,0,1.02-0.46,1.26l-9.37,4.99
					C40.66,45.4,40.5,45.44,40.34,45.44z M38.9,38.2l1.95,4.83l7.6-4.05l-1.95-4.83L38.9,38.2z"/>
			</g>
		</g>
		<g>
			<g>
				<path class="st1" d="M50.66,30.68C39.34,17.1,57.78,6.55,66.82,4.13l0.71,7.97c-3.92,2.13-5.63,6.34-4.99,10.96
					c0.79,5.34,4.06,9.75,8.61,11.75l0.71,8.4C61.91,41.01,56.7,37.92,50.66,30.68z M74.04,48.07c4.06-1.92,9.46-18.42,8.75-23.26
					c-0.71-5.05-9.25-13.76-13.8-15.9l9.37-4.99c8.86,2.93,13.76,10.42,15.29,17.66c1.5,7.1,0.59,15.1-6.98,20.77L74.04,48.07z"/>
				<path d="M74.04,49.07c-0.38,0-0.74-0.21-0.91-0.58c-0.23-0.5-0.02-1.09,0.48-1.32c3.49-1.65,8.87-17.56,8.19-22.21
					c-0.67-4.75-8.98-13.14-13.24-15.14c-0.09-0.04-0.17-0.09-0.24-0.16l0.21,2.36c0.04,0.4-0.17,0.78-0.52,0.97
					c-3.41,1.86-5.08,5.57-4.47,9.95c0.73,4.99,3.73,9.09,8.02,10.97c0.34,0.15,0.56,0.47,0.59,0.83l0.71,8.4
					c0.03,0.32-0.1,0.63-0.34,0.84s-0.57,0.29-0.87,0.22c-10.12-2.24-15.61-5.49-21.76-12.87l0,0c-3.5-4.2-4.59-8.48-3.25-12.71
					C49.2,10.56,60.22,4.86,66.56,3.17c0.28-0.08,0.59-0.02,0.83,0.15c0.24,0.17,0.4,0.44,0.42,0.73l0.38,4.25
					c0.08-0.11,0.19-0.2,0.32-0.26l9.37-4.99c0.24-0.13,0.53-0.15,0.79-0.07c8.12,2.69,14.08,9.57,15.95,18.4
					c1.36,6.41,1.18,15.39-7.36,21.77c-0.06,0.04-0.12,0.08-0.19,0.11l-12.63,5.72C74.32,49.04,74.17,49.07,74.04,49.07z
					 M71.06,8.94c4.95,3.18,12.02,10.83,12.71,15.73c0.56,3.82-2.49,14.7-6,20.6l8.38-3.8c7.61-5.75,7.75-13.88,6.51-19.69
					C90.97,13.8,85.67,7.56,78.44,5L71.06,8.94z M51.43,30.04c5.62,6.75,10.45,9.75,19.33,11.89l-0.55-6.45
					c-4.63-2.26-7.85-6.8-8.66-12.27c-0.69-4.99,1.14-9.29,4.92-11.65l-0.55-6.13c-6.03,1.91-15.21,6.94-17.38,13.78
					C47.43,22.76,48.4,26.4,51.43,30.04L51.43,30.04z"/>
			</g>
			<g>
				<path class="st0" d="M44.56,29.06c-1.28-9.25,3.85-17.51,12.89-19.93l0.71,7.97c-3.92,2.13-5.63,6.34-4.99,10.96
					c0.79,5.34,4.06,9.75,8.61,11.75l0.71,8.4C52.54,46,45.92,38.38,44.56,29.06z M73.33,40.02c4.06-1.92,5.7-6.12,4.98-10.96
					c-0.71-5.05-4.06-9.61-8.61-11.75l-0.71-8.4c9.83,2.42,16.8,10.18,18.01,19.01c1.35,9.68-3.56,17.94-12.96,20.15L73.33,40.02z"
					/>
				<path d="M62.5,49.21c-0.07,0-0.14-0.01-0.22-0.02C52.21,46.95,45.04,39.3,43.57,29.2c0,0,0,0,0-0.01
					c-1.37-9.87,4.23-18.52,13.62-21.03c0.28-0.08,0.59-0.02,0.83,0.15c0.24,0.17,0.4,0.44,0.42,0.73l0.71,7.97
					c0.04,0.4-0.17,0.78-0.52,0.97c-3.41,1.86-5.08,5.57-4.47,9.95c0.73,4.99,3.73,9.09,8.02,10.97c0.34,0.15,0.56,0.47,0.59,0.83
					l0.71,8.4c0.03,0.32-0.1,0.63-0.34,0.84C62.98,49.12,62.74,49.21,62.5,49.21z M45.55,28.92c1.28,8.8,7.29,15.58,15.83,17.98
					l-0.54-6.43c-4.63-2.25-7.85-6.79-8.66-12.26c-0.69-4.99,1.14-9.29,4.92-11.65l-0.55-6.12C48.88,13.06,44.39,20.49,45.55,28.92z
					 M74.04,49.07c-0.21,0-0.41-0.07-0.59-0.19c-0.24-0.17-0.38-0.43-0.41-0.72l-0.71-8.04c-0.04-0.42,0.19-0.81,0.57-0.99
					c3.49-1.66,5.11-5.27,4.42-9.92c-0.66-4.69-3.82-9-8.05-10.99c-0.32-0.15-0.54-0.46-0.57-0.82L67.99,9
					c-0.03-0.32,0.1-0.64,0.35-0.84c0.25-0.21,0.58-0.29,0.89-0.21c9.93,2.45,17.47,10.42,18.76,19.84
					c1.46,10.44-4.06,18.99-13.72,21.26C74.19,49.06,74.11,49.07,74.04,49.07z M74.38,40.6l0.55,6.19
					c7.9-2.4,12.33-9.78,11.08-18.73c-1.12-8.19-7.44-15.19-15.91-17.8l0.54,6.4c4.62,2.38,7.92,7.03,8.66,12.25
					C80.07,34.13,78.24,38.44,74.38,40.6z"/>
			</g>
			<g>
				<polygon class="st1" points="57.45,9.13 66.82,4.13 67.53,12.11 58.16,17.1 				"/>
				<path d="M58.16,18.1c-0.16,0-0.33-0.04-0.48-0.12c-0.29-0.16-0.49-0.46-0.52-0.79l-0.71-7.97c-0.04-0.4,0.17-0.78,0.53-0.97
					l9.37-4.99c0.3-0.16,0.65-0.16,0.95,0c0.29,0.16,0.49,0.46,0.52,0.79l0.71,7.97c0.04,0.4-0.17,0.78-0.53,0.97l-9.37,4.99
					C58.49,18.06,58.32,18.1,58.16,18.1z M58.5,9.7l0.52,5.81l7.45-3.97l-0.52-5.81L58.5,9.7z"/>
			</g>
			<g>
				<polygon class="st1" points="71.16,34.81 61.79,39.81 62.5,48.21 71.87,43.21 				"/>
				<path d="M62.5,49.21c-0.16,0-0.33-0.04-0.48-0.12c-0.3-0.16-0.49-0.46-0.52-0.79l-0.71-8.4c-0.03-0.4,0.17-0.78,0.53-0.97
					l9.37-4.99c0.3-0.16,0.65-0.16,0.95,0c0.3,0.16,0.49,0.46,0.52,0.79l0.71,8.4c0.03,0.4-0.17,0.78-0.53,0.97l-9.37,4.99
					C62.83,49.17,62.67,49.21,62.5,49.21z M62.84,40.38l0.53,6.23l7.45-3.97l-0.53-6.23L62.84,40.38z"/>
			</g>
		</g>
	</g>
	<g>
		<polygon class="st0" points="51.38,145.09 8,124.09 1,43.66 51.38,63.66 		"/>
		<path d="M51.38,146.09c-0.15,0-0.3-0.03-0.44-0.1l-43.38-21c-0.32-0.15-0.53-0.46-0.56-0.81L0,43.75
			c-0.03-0.35,0.12-0.68,0.4-0.89c0.28-0.21,0.64-0.26,0.97-0.13l50.38,20c0.38,0.15,0.63,0.52,0.63,0.93v81.43
			c0,0.34-0.18,0.66-0.47,0.85C51.75,146.04,51.57,146.09,51.38,146.09z M8.95,123.44l41.44,20.06V64.34L2.14,45.19L8.95,123.44z"/>
	</g>
	<g>
		<polygon class="st0" points="51.38,145.09 82.77,121.09 88.77,43.66 51.38,63.66 		"/>
		<path d="M51.38,146.09c-0.15,0-0.3-0.03-0.44-0.1c-0.34-0.17-0.56-0.52-0.56-0.9V63.66c0-0.37,0.2-0.71,0.53-0.88l37.38-20
			c0.32-0.17,0.71-0.16,1.02,0.04c0.31,0.2,0.48,0.55,0.45,0.91l-6,77.43c-0.02,0.28-0.16,0.54-0.39,0.72l-31.38,24
			C51.81,146.02,51.6,146.09,51.38,146.09z M52.38,64.26v78.8l29.42-22.5l5.83-75.16L52.38,64.26z"/>
	</g>
</g>
</svg>
