<?xml version="1.0" encoding="utf-8"?>
<!-- Generator: Adobe Illustrator 23.0.1, SVG Export Plug-In . SVG Version: 6.00 Build 0)  -->
<svg version="1.1" id="Livello_1" xmlns="http://www.w3.org/2000/svg" xmlns:xlink="http://www.w3.org/1999/xlink" x="0px" y="0px"
	 viewBox="0 0 84.46 74.61" style="enable-background:new 0 0 84.46 74.61;" xml:space="preserve">
<style type="text/css">
	.st0{fill:#FFFFFF;}
	.st1{fill:#ED2024;}
</style>
<polygon class="st0" points="79.13,74.61 12.2,66.04 17.53,24.42 53.78,6.95 84.46,33 "/>
<g>
	<polygon class="st0" points="67.79,69.32 0.86,60.75 6.19,19.14 42.44,1.66 73.12,27.71 	"/>
	<path d="M68.46,70.18L0,61.42l5.48-42.79L42.56,0.75l31.38,26.64L68.46,70.18z M1.72,60.08l65.4,8.38l5.18-40.44L42.33,2.57
		L6.9,19.65L1.72,60.08z"/>
</g>
<g>
	<path d="M20.13,23.85C19.97,12.01,29.09,3.78,41.98,5.43c9.94,1.27,18.13,9.02,18.24,20.1c0.1,7.93-3.26,13.19-8.91,12.46
		c-2.2-0.28-3.79-1.7-4.33-3.45c-1.02,1.19-3.49,2.24-7.23,1.76c-4.29-0.55-9.65-4.28-9.77-10.95C29.92,18.31,35.55,14,42.09,14.84
		c4,0.51,7.44,2.98,8.55,4.19l-0.01,9.19c0.04,2.9,0.59,4.49,2.19,4.7c1.4,0.18,2.34-3.2,2.31-7.32
		c-0.11-7.83-5.54-14.21-13.83-15.28c-9.09-1.16-15.73,4.69-15.63,13.43c0.12,7.43,4.76,13.15,11.31,15.92l-0.28,4.94
		C28.52,42.34,20.25,35.6,20.13,23.85z M45.49,28.37l-0.23-6.93c-0.74-0.6-1.85-1.4-4.05-1.69c-2.9-0.37-5.47,1.48-5.42,5.04
		c0.02,3.4,2.59,5.97,5.18,6.3C43.77,31.45,45.49,29.9,45.49,28.37z"/>
</g>
<g>
	<path class="st1" d="M15.94,20.03C15.78,8.18,24.9-0.05,37.79,1.61c9.94,1.27,18.13,9.02,18.24,20.1
		c0.1,7.93-3.26,13.19-8.91,12.46c-2.2-0.28-3.79-1.7-4.33-3.45c-1.02,1.19-3.49,2.24-7.23,1.76c-4.29-0.55-9.65-4.28-9.77-10.95
		c-0.06-7.06,5.57-11.37,12.11-10.53c4,0.51,7.44,2.98,8.55,4.19l-0.01,9.19c0.04,2.9,0.59,4.49,2.19,4.7
		c1.4,0.18,2.34-3.2,2.31-7.32C50.83,13.94,45.4,7.55,37.11,6.49c-9.09-1.16-15.73,4.69-15.63,13.43
		c0.12,7.43,4.76,13.15,11.31,15.92l-0.28,4.94C24.33,38.51,16.06,31.77,15.94,20.03z M41.3,24.54l-0.23-6.93
		c-0.74-0.6-1.85-1.4-4.05-1.69c-2.9-0.37-5.47,1.48-5.42,5.04c0.02,3.4,2.59,5.97,5.18,6.3C39.58,27.62,41.3,26.07,41.3,24.54z"/>
</g>
<g>
	<g>
		<polygon class="st0" points="0.86,60.75 6.19,19.14 36.94,44.64 73.12,27.71 67.79,69.32 		"/>
		<path d="M67.79,70.09c-0.03,0-0.07,0-0.1-0.01L0.76,61.51c-0.42-0.05-0.72-0.44-0.67-0.86l5.33-41.62
			c0.04-0.28,0.22-0.52,0.48-0.62c0.26-0.1,0.56-0.06,0.77,0.12l30.37,25.19L72.8,27.01c0.25-0.12,0.55-0.09,0.78,0.08
			c0.23,0.17,0.35,0.44,0.31,0.72l-5.33,41.62C68.51,69.81,68.18,70.09,67.79,70.09z M1.72,60.08l65.4,8.38L72.18,29L37.27,45.34
			c-0.27,0.13-0.59,0.09-0.82-0.1L6.78,20.62L1.72,60.08z"/>
	</g>
	<path d="M67.31,69.92L36.83,45.53L1.18,61.45l-0.63-1.41l36.08-16.11c0.26-0.12,0.57-0.08,0.8,0.1l30.85,24.68L67.31,69.92z"/>
</g>
</svg>
