<?xml version="1.0" encoding="utf-8"?>
<!-- Generator: Adobe Illustrator 23.0.1, SVG Export Plug-In . SVG Version: 6.00 Build 0)  -->
<svg version="1.1" id="Livello_1" xmlns="http://www.w3.org/2000/svg" xmlns:xlink="http://www.w3.org/1999/xlink" x="0px" y="0px"
	 viewBox="0 0 89.14 102.44" style="enable-background:new 0 0 89.14 102.44;" xml:space="preserve">
<style type="text/css">
	.st0{fill:#FFFFFF;}
	.st1{fill:#E5E521;}
	.st2{fill:#721850;}
	.st3{fill:#72C48A;}
	.st4{fill:#1F1E58;}
	.st5{fill:#E37AB0;}
	.st6{fill:#CE2527;}
</style>
<polygon class="st0" points="89.14,102.44 11.52,102.44 11.52,8.65 71.36,8.65 89.14,23.65 "/>
<g>
	<polygon class="st0" points="81.51,94.94 3.89,94.94 3.89,1.15 63.73,1.15 81.51,16.15 	"/>
	<path d="M63,3.15l16.51,13.93v75.86H5.89V3.15H63 M63.73,1.15H3.89v93.79h77.62V16.15L63.73,1.15L63.73,1.15z"/>
</g>
<g>
	<polygon class="st0" points="63.73,1.15 81.51,16.15 63.73,16.15 	"/>
	<path d="M65.73,5.46l10.31,8.7H65.73V5.46 M63.73,1.15v15h17.78L63.73,1.15L63.73,1.15z"/>
</g>
<g>
	
		<rect x="40.85" y="-2.77" transform="matrix(0.3562 -0.9344 0.9344 0.3562 6.8407 53.5589)" class="st1" width="2.88" height="49.16"/>
	
		<rect x="20.94" y="71.77" transform="matrix(0.7533 -0.6576 0.6576 0.7533 -36.4724 49.1872)" class="st2" width="52.79" height="2.88"/>
	
		<rect x="15.76" y="81.68" transform="matrix(0.9959 -0.0902 0.0902 0.9959 -7.3055 4.5083)" class="st3" width="60.98" height="2.89"/>
	
		<rect x="18.54" y="58.91" transform="matrix(0.9891 -0.1475 0.1475 0.9891 -8.4287 7.0186)" class="st1" width="49.16" height="2.88"/>
	
		<rect x="3.81" y="68.53" transform="matrix(0.9161 -0.4011 0.4011 0.9161 -24.8585 21.1898)" class="st4" width="68.75" height="2.88"/>
	<polygon class="st2" points="66.29,58.02 16.79,23.73 18.19,21.81 67.69,56.11 	"/>
	
		<rect x="60.08" y="5.83" transform="matrix(0.9765 -0.2153 0.2153 0.9765 -5.5027 14.0034)" class="st3" width="2.88" height="52.86"/>
	
		<rect x="40.82" y="24.82" transform="matrix(0.6359 -0.7717 0.7717 0.6359 -31.674 54.814)" class="st5" width="2.88" height="72.32"/>
	
		<rect x="5.71" y="44.29" transform="matrix(0.8195 -0.5731 0.5731 0.8195 -18.5793 32.4756)" class="st6" width="73.1" height="2.88"/>
	
		<rect x="40.82" y="38.67" transform="matrix(0.0733 -0.9973 0.9973 0.0733 -28.516 105.0355)" class="st6" width="2.88" height="58.37"/>
	
		<rect x="-2.4" y="37.78" transform="matrix(0.5905 -0.807 0.807 0.5905 -18.5578 41.8661)" class="st4" width="68.75" height="2.88"/>
</g>
</svg>
