<?xml version="1.0" encoding="utf-8"?>
<!-- Generator: Adobe Illustrator 23.0.1, SVG Export Plug-In . SVG Version: 6.00 Build 0)  -->
<svg version="1.1" id="Livello_1" xmlns="http://www.w3.org/2000/svg" xmlns:xlink="http://www.w3.org/1999/xlink" x="0px" y="0px"
	 viewBox="0 0 296.17 122.43" style="enable-background:new 0 0 296.17 122.43;" xml:space="preserve">
<style type="text/css">
	.st0{fill:#9FB8CB;}
</style>
<g>
	<path class="st0" d="M250.22,97.68c-6.08-9.87-11.77-19.1-17.72-28.75c3.96-3.41,8.3-6.39,13.3-8.24
		c8.47-3.14,15.19-0.56,19.69,7.29c4.66,8.13,3.86,16.49-2.69,21.79C259.15,92.72,254.82,94.83,250.22,97.68z M254.65,89.15
		c7.23-4.68,8.05-7.1,5.42-12.95c-1.83-4.07-4.76-7.02-8.71-8.96c-3.02-1.49-5.94-1.8-8.58,1.29
		C246.73,75.38,250.55,82.02,254.65,89.15z"/>
	<path class="st0" d="M28.14,13.59c3.8,3.3,7.27,5.86,10.18,8.95c6.66,7.07,6.4,15.95-0.33,22.94c-7.08,7.35-16.17,8.03-23.67,1.72
		c-2.86-2.4-5.62-4.92-9.13-8C13.1,30.37,20.32,22.31,28.14,13.59z M35.6,29.08c0.24-4.14-2.39-5.22-3.92-6.63
		C25.71,28.97,20.37,34.8,15.05,40.6c4.18,4.32,5.73,5.15,9.05,4.13C31.43,42.48,34.04,36.52,35.6,29.08z"/>
	<path class="st0" d="M202.47,96.68c0.13,10.77-3.74,16.12-12.77,18.44c-6.94,1.78-13.62-1.37-16.45-7.93
		c-2.54-5.87-3.25-11.86-0.31-17.84c2.1-4.27,5.23-7.21,10.04-8.51c9.3-2.52,17.43,2.3,19.21,11.78
		C202.49,94.18,202.42,95.82,202.47,96.68z M184.03,85.56c-5.39,3.9-5.13,9.45-3.92,14.66c1.15,4.91,3.33,9.73,9.7,10.5
		c6.1-4.65,5.36-10.76,3.48-16.77C191.94,89.61,189.86,85.34,184.03,85.56z"/>
	<path class="st0" d="M221.43,98.12c0.51,2.87,1.02,5.73,1.66,9.35c-2.08,0.8-4.42,1.71-7.24,2.8c-3.7-11.06-7.15-21.37-10.8-32.29
		c4.12-1.43,8.01-3.36,12.11-4.07c8.52-1.49,13.5,3.39,12.65,11.96c-0.2,2.07-1.1,4.08-1.78,6.49c3.94,2.75,8.01,5.59,12.87,8.98
		c-2.98,1.43-5.27,2.53-6.89,3.31c-4.74-2.38-8.74-4.38-12.73-6.39c-0.3-0.21-0.6-0.43-0.9-0.64
		C220.74,97.79,221.09,97.95,221.43,98.12z M219.08,92.35c4.72-3.7,4.51-6.99,2.64-10.26c-1.41-2.46-3.56-3.81-7.02-1.83
		C216.09,84.11,217.42,87.76,219.08,92.35z"/>
	<path class="st0" d="M100.52,68.33c-1.67,11.75-3.32,23.3-5.09,35.75c-3.04-1.43-5.09-2.39-7.14-3.35
		c0.23-3.89,0.44-7.32,0.67-11.28c-2.84-1.46-5.62-2.89-8.63-4.44c-2.7,2.34-5.1,4.43-7.96,6.91c-1.27-0.47-2.85-1.05-4.63-1.71
		c0.55-1.24,0.68-2.12,1.19-2.59c6.54-5.94,13.2-11.76,19.7-17.74C92.25,66.56,96.04,66.22,100.52,68.33z M92.61,72.18
		c-2.16,1.22-6.48,7.18-9.23,8.73c3.12,1.61,4.76,2.46,6.92,3.57C90.3,81.18,92.61,74.01,92.61,72.18z"/>
	<path class="st0" d="M137.11,84.87c-1.88,1.89-2.23,2.23-4.13,4.14c0,0-3.23-4.05-5.59-6.01c-5.49-2.22-8.53,0.58-10.9,4.47
		c-3.17,5.21-3.03,13.04,0.08,16.59c2.91,3.32,6.17,3.65,13.99,1.37c1.18,3.03-0.68,4.69-2.96,5.52c-6.59,2.4-12.7,0.98-17.88-3.54
		c-4.66-4.07-5.58-9.4-4.07-15.29c2.7-10.53,8.96-15.63,18.63-15.05C129.36,77.37,133.47,79.36,137.11,84.87z"/>
	<path class="st0" d="M166.06,108.12c-0.06,4.35-2.05,6.32-4.96,7.51c-10.86,4.43-21.63-2.15-22.76-13.87
		c-0.77-7.96,2.65-14.97,8.95-18.35c6.07-3.26,13.49-2.25,19.91,3.19c-0.84,1.73-1.79,3.66-2.81,5.75c-1.5-0.7-2.51-0.83-2.82-1.37
		c-1.77-3.07-4.03-4.92-7.85-4.14c-4.25,0.87-5.07,4.43-6.07,7.73c-0.45,1.5-0.24,3.2-0.31,4.8c-0.48,10.82,8.54,14.99,15.9,9.5
		C163.8,108.47,164.67,108.48,166.06,108.12z"/>
	<path class="st0" d="M49.24,69.45l2.09-0.3c1.98,3.53,5.94,10.6,10.12,7.27c-0.24-2.33-0.27-4.61-0.75-6.8
		c-0.63-2.86-1.99-5.6-2.36-8.48c-1.02-7.94,4.98-12.7,12.61-10.36c4.46,1.37,7.21,4.31,8.9,8.78c-0.51,0.95-0.85,2-1.54,2.71
		c-0.72,0.74-1.77,1.15-2.97,1.89c-1.28-3.87-0.84-9.61-6.53-10.21c-3.25,3.71-1.93,6.78-1.06,9.81c1.02,3.55,2.14,7.23,2.18,10.86
		c0.04,4.97-3.12,7.85-8.11,8.21c-4.45,0.32-8.56-0.84-11.43-4.48C48.32,75.74,48.36,71.36,49.24,69.45z"/>
	<path class="st0" d="M54.01,36.67c2.12,1.81,4.23,3.62,6.78,5.8c-7.53,8.77-14.63,17.05-22.12,25.79
		c-2.07-1.52-3.91-2.86-6.37-4.66C39.46,54.72,46.29,46.25,54.01,36.67z"/>
	<path class="st0" d="M260.22,50.06c2.07-1.82,4.01-3.52,6.63-5.82c7.39,8.99,14.4,17.51,21.76,26.45c-2.19,2-3.86,3.53-5.92,5.41
		C275.22,67.45,268.12,59.23,260.22,50.06z"/>
	<path class="st0" d="M221.43,98.12c-0.35-0.17-0.69-0.34-1.04-0.5c0.3,0.21,0.6,0.43,0.9,0.64L221.43,98.12z"/>
</g>
</svg>
