<?xml version="1.0" encoding="utf-8"?>
<!-- Generator: Adobe Illustrator 23.0.1, SVG Export Plug-In . SVG Version: 6.00 Build 0)  -->
<svg version="1.1" id="Livello_1" xmlns="http://www.w3.org/2000/svg" xmlns:xlink="http://www.w3.org/1999/xlink" x="0px" y="0px"
	 viewBox="0 0 319.56 172.3" style="enable-background:new 0 0 319.56 172.3;" xml:space="preserve">
<style type="text/css">
	.st0{fill:none;stroke:#33B085;stroke-width:2;stroke-miterlimit:10;}
</style>
<g>
	<g>
		<g>
			<path class="st0" d="M0.86,4.99c5.17-0.01,7.75-0.01,12.91-0.01c-1.41,8.48,1.15,12.17,6.73,19.39c1.8,2.44,3.82,5.1,5.95,7.61
				c0.11,0,0.17,0,0.28,0c-0.44-2.51-1.05-5.17-1.15-7.61c-0.16-7.22,0.03-10.91,6.71-19.41c5.16-0.01,7.74-0.01,12.9-0.01
				c-3.35,17.28,5.78,28.84,9.87,45.06c-4.37,0.01-6.55,0.01-10.92,0.01c-0.22-5.34-1.42-7.86-3.85-12.92
				c-2.09-4.35-4.71-11-5.51-15.48c-0.11,0-0.17,0-0.28,0c-0.22,4.3,0.16,6.36,0.75,10.48c0.64,5.68,1.32,8.43,0.3,14.28
				c-2.58,0-3.87,0-6.44,0.01c-3.48-5.85-6.41-8.6-11.59-14.27c-3.59-4.12-5.48-6.17-8.26-10.48c-0.11,0-0.17,0-0.28,0
				c1.93,4.48,6.58,11.14,8.7,15.49c2.47,5.06,3.69,7.57,3.92,12.92c-4.31,0.01-6.47,0.01-10.78,0.01
				C6.55,33.76-2.89,22.39,0.86,4.99z"/>
			<path class="st0" d="M54.96,28.11C48.69,15.28,63.44,3.65,74.93,3.95c11.4,0.3,17.75,15.46,22.55,24.12
				c5.98,10.77-1.37,22.75-13.15,22.74C72.11,50.8,60.11,38.64,54.96,28.11z M85.09,28.08c-3.61-7.86-7.09-12.84-12.58-12.84
				c-5.49,0-8.81,4.99-5.16,12.85c3.65,7.87,9.37,12.67,14.84,12.67C87.66,40.76,88.71,35.94,85.09,28.08z"/>
			<path class="st0" d="M103.74,4.88c4.93-0.01,7.39-0.01,12.32-0.01c0.06,8.62,6.01,14.94,11.17,21.03
				c3.37,3.92,5.32,5.82,8.85,9.66c0.11,0,0.17,0,0.28,0c-2.71-4.6-7.1-11.04-8.29-16.66c-1.12-5.28-1.27-8.02,1.15-14.05
				c4.59,0,6.89-0.01,11.47-0.01c-2.46,17,6.07,29,9.84,45.05c-4.93,0.01-7.39,0.01-12.32,0.01c-4.07-7.54-10.78-13.49-16.8-19.4
				c-3.58-3.83-5.41-5.75-8.26-9.77c-0.11,0-0.17,0-0.28,0c1.97,5.13,6.31,11.29,8.68,16.55c2.23,4.95,3.3,7.41,3.5,12.64
				c-4.59,0.01-6.89,0.01-11.48,0.01C109.68,33.82,100.93,21.99,103.74,4.88z"/>
			<path class="st0" d="M156.97,44.35c1.92-3.18,2.63-4.73,3.99-7.83c4.32,2.43,9.01,4.15,12.37,4.14c3.65,0,4.79-1.13,3.98-3.04
				c-0.87-2.04-3.51-2.69-8.06-4.13c-2.7-0.89-4.05-1.34-6.75-2.23c-5.79-1.84-12.78-5.9-13.85-12.23
				c-1.57-9.31,10.18-15.1,18.3-15.18c5.12-0.05,9.63,2.34,13.38,6.79c-2.75,3.27-3.81,4.83-5.6,7.87
				c-3.54-2.18-6.25-3.35-9.63-3.35c-2.95,0-4.75,1.1-4.35,3.15c0.43,2.19,3.29,2.94,7.98,4.5c2.51,0.85,3.78,1.27,6.33,2.1
				c6.54,2.15,11.6,5.88,14.2,11.77c4.06,9.18-6.91,14.16-14.21,14.01C169.43,50.59,162.97,48.58,156.97,44.35z"/>
			<path class="st0" d="M196.23,15.72c-4.84,0-7.26,0.01-12.09,0.01c-0.44-4.15-0.34-6.31,1.31-10.93
				c12.02-0.01,24.05-0.03,36.07-0.04c-1.52,4.63-1.58,6.79-1.1,10.94c-4.84,0-7.25,0.01-12.09,0.01
				c2.49,11.87,9.65,21.97,11.09,34.1c-4.82,0.01-7.23,0.01-12.04,0.01C205.92,37.68,198.7,27.6,196.23,15.72z"/>
			<path class="st0" d="M228.22,4.75c9.78-0.01,19.57-0.02,29.35-0.03c-1.38,4.64-1.41,6.8-0.89,10.95
				c-6.97,0.01-10.46,0.01-17.43,0.01c0.35,2.94,0.75,4.36,1.69,7.15c5.97,0,8.95-0.01,14.91-0.01c1.33,3.93,2.27,5.82,3.97,9.6
				c-5.96,0.01-8.93,0.01-14.89,0.01c1.38,3.05,2.1,4.55,3.21,7.62c7.23-0.01,10.85-0.01,18.09-0.02c1.36,3.8,1.91,5.71,2.05,9.72
				c-10.03,0.01-20.07,0.02-30.1,0.04C234.63,33.9,226.6,21.49,228.22,4.75z"/>
			<path class="st0" d="M267.07,4.71c6.88-0.01,10.31-0.01,17.19-0.02c9.92-0.58,15.98,7.39,18.51,15.61
				c2.68,8.71-3.56,15.49-12.39,14.84c-2.08,0-3.12,0-5.19,0.01c2.45,5.71,3.74,8.51,3.95,14.58c-4.82,0.01-7.23,0.01-12.04,0.01
				C273.64,33.93,265.82,21.32,267.07,4.71z M285.65,26.17c4.78,0,6.37-1.97,5.3-5.86c-1.07-3.89-3.57-5.24-8.35-5.24
				c-1.74,0-2.61,0-4.36,0c0.52,4.64,1.33,6.82,3.04,11.1C283.04,26.17,283.91,26.17,285.65,26.17z M286.91,32.19
				c1.93-3,2.85-4.49,4.96-7.57c8.13,7.94,16.91,15.48,23.16,25.07c-5.38,0.01-8.06,0.01-13.44,0.02
				C298.07,43.23,292.25,37.18,286.91,32.19z"/>
		</g>
	</g>
	<g>
		<g>
			<path class="st0" d="M15.55,83.42C8.6,72.34,18.76,58.05,31.36,59.2c12.18,1.11,20.51,15.13,26.66,24.19
				c6.96,10.24-0.11,22.88-11.94,22.65C33.28,105.78,22,93.7,15.55,83.42z M45.64,83.4c-4.48-7.83-8.94-12.83-14.42-12.83
				c-5.48,0-7.8,5.01-3.29,12.84c4.5,7.83,10.31,12.61,15.78,12.6C49.17,96.01,50.13,91.23,45.64,83.4z"/>
			<path class="st0" d="M60.32,60.14c9.87-0.01,19.75-0.02,29.62-0.03c-0.81,4.67-0.53,6.83,0.59,10.99
				c-7.08,0.01-10.63,0.01-17.71,0.01c0.95,3.58,1.75,5.29,3.47,8.64c6.08,0,9.12-0.01,15.19-0.01c2,3.89,3.23,5.76,5.34,9.53
				c-6.07,0.01-9.1,0.01-15.17,0.01c3.52,6.22,5.38,9.24,5.69,15.86c-4.82,0.01-7.22,0.01-12.04,0.01
				C72.74,89.54,57.74,76.81,60.32,60.14z"/>
		</g>
	</g>
	<g>
		<g>
			<path class="st0" d="M13.6,165.07c2.58-4.37,3.53-6.5,5.32-10.79c6.09,3.36,12.66,5.72,17.35,5.72c5.08-0.01,6.65-1.56,5.45-4.2
				c-1.28-2.82-4.98-3.72-11.37-5.72c-3.79-1.24-5.69-1.86-9.5-3.1c-8.16-2.56-17.86-8.05-20.33-17.16
				c-3.46-12.76,11.13-21.63,22.49-21.7c7.15-0.04,14.03,3.38,20.15,9.76c-3.16,4.68-4.37,6.9-6.45,11.21
				c-5.23-3.09-9.2-4.76-13.89-4.75c-4.11,0-6.41,1.57-5.57,4.47c0.9,3.1,4.96,4.15,11.64,6.36c3.58,1.19,5.38,1.78,9,2.95
				c9.29,3.02,16.63,8.24,20.44,16.39c5.9,12.62-9.33,19.5-19.33,19.28C31.2,173.61,22.09,170.89,13.6,165.07z"/>
			<path class="st0" d="M66.81,109.46c8.08-0.01,12.12-0.01,20.21-0.02c8.34,24.22,25.51,41.01,37.67,63.1
				c-7.09,0.01-10.64,0.01-17.73,0.02c-3.18-10.97-11.1-20.17-17.83-29.05c-4.38-5.74-9.27-13.3-12.1-20.04c-0.16,0-0.23,0-0.39,0
				c-0.08,6.85,1.64,14.31,2.9,20.05c2.86,11.7,5.56,17.01,3.46,29.07c-6.86,0.01-10.29,0.01-17.15,0.02
				C68.52,150.73,61.78,131.48,66.81,109.46z M71.02,147.67c12.45-0.01,18.67-0.02,31.12-0.03c2.42,4.87,3.67,7.25,5.51,12.1
				c-12.42,0.01-18.63,0.02-31.04,0.03C74.73,154.92,73.46,152.53,71.02,147.67z"/>
			<path class="st0" d="M111.3,109.41c6.69-0.01,10.03-0.01,16.72-0.02c1.04,18.93,6.93,32.94,15.34,49.76
				c9.61-0.01,14.41-0.02,24.02-0.03c1.98,5.24,2.77,7.86,3.1,13.36c-13.58,0.02-27.15,0.03-40.73,0.05
				C124.14,150.62,112.85,132.38,111.3,109.41z"/>
			<path class="st0" d="M162.81,109.35c6.69-0.01,10.04-0.01,16.73-0.02c2.23,22.69,13.25,41.28,18.61,63.12
				c-6.7,0.01-10.06,0.01-16.76,0.02C175.97,150.61,164.88,132.11,162.81,109.35z"/>
			<path class="st0" d="M193.54,109.32c6.85-0.01,10.27-0.01,17.13-0.02c3.86,12.02,12.61,20.97,20.92,29.99
				c4.91,5.49,7.55,8.12,12.32,13.41c0.16,0,0.23,0,0.39,0c-3.59-6.34-9.67-15.3-12.34-23.26c-2.51-7.48-3.48-11.4-3-20.16
				c6.39-0.01,9.58-0.01,15.97-0.02c2.83,22.42,13.59,41.33,18.69,63.11c-6.86,0.01-10.29,0.01-17.15,0.02
				c-5.61-10.35-14.62-18.53-22.86-26.69c-4.97-5.32-7.57-8.01-12.12-13.68c-0.16,0-0.24,0-0.39,0c3.48,7.24,9.44,15.8,12.51,23.05
				c2.88,6.81,4.15,10.17,4.55,17.34c-6.39,0.01-9.59,0.01-15.98,0.02C206.87,150.61,195.9,131.94,193.54,109.32z"/>
			<path class="st0" d="M258.95,109.24c13.64-0.02,27.28-0.03,40.92-0.05c-0.08,6.72,0.49,9.82,2.12,15.74
				c-9.73,0.01-14.59,0.01-24.32,0.02c1.13,4.19,1.89,6.2,3.51,10.12c8.32-0.01,12.48-0.01,20.81-0.02
				c2.28,5.53,3.64,8.16,6.02,13.41c-8.31,0.01-12.46,0.01-20.77,0.02c1.94,4.23,2.9,6.3,4.37,10.52
				c10.08-0.01,15.13-0.02,25.21-0.03c1.79,5.23,2.49,7.85,2.74,13.34c-13.97,0.02-27.94,0.03-41.91,0.05
				C272.61,150.58,261.9,131.61,258.95,109.24z"/>
		</g>
	</g>
</g>
</svg>
