<?xml version="1.0" encoding="utf-8"?>
<!-- Generator: Adobe Illustrator 23.0.1, SVG Export Plug-In . SVG Version: 6.00 Build 0)  -->
<svg version="1.1" id="Livello_1" xmlns="http://www.w3.org/2000/svg" xmlns:xlink="http://www.w3.org/1999/xlink" x="0px" y="0px"
	 viewBox="0 0 379.53 150.03" style="enable-background:new 0 0 379.53 150.03;" xml:space="preserve">
<style type="text/css">
	.st0{fill:#EC2326;}
</style>
<g>
	<g>
		<path class="st0" d="M22.57,27.85c-1.89-13.44,7.4-21.47,23.91-21.47c8.48,0,14.98,3.25,17.14,5.14l1.35,12.45
			c-3.43-3.7-10.83-6.95-18.23-6.95c-7.04,0-13.35,1.99-12.45,8.48l2.26,17.68C29.52,40.39,23.65,35.88,22.57,27.85z M27.89,70.71
			l-1.71-14.44c2.35,3.52,10.02,8.48,19.04,9.84l0.9,10.83C35.74,75.94,29.88,72.24,27.89,70.71z M63.08,56.72
			c-0.54-3.43-2.71-5.86-6.23-7.58l-1.17-12.27c10.2,2.89,17.51,6.95,19.04,17.96c1.35,9.84-2.44,16.42-9.47,19.58L63.08,56.72z"/>
		<path class="st0" d="M92.14,30.65l2.62,20.48c1.17,8.39,8.39,16.33,19.13,16.33c6.23,0,11.01-1.71,12.9-4.51l3.97,9.2
			c-3.52,2.71-8.57,4.96-16.69,4.96c-16.87,0-28.42-11.64-30.32-24.99C82.58,43.37,85.65,35.34,92.14,30.65z M107.75,25.87
			c6.05,0,11.82,1.35,16.15,3.79l-2.26,10.02c-2.71-2.26-7.58-4.06-13.08-4.06L107.75,25.87z"/>
		<path class="st0" d="M143.76,29.29l3.34,25.54c1.44,8.03,9.56,12.63,17.78,12.63c6.86,0,13.08-1.44,16.33-4.33l3.43,8.48
			c-3.61,3.16-10.92,5.5-20.3,5.5c-15.79,0-27.25-9.56-29.32-24.54C133.56,42.56,136.72,33.81,143.76,29.29z M182.29,48.33
			c0.27,2.44,0.18,5.32-0.09,6.59l-18.86,0.27l-1.17-8.48l9.2,0.36c-0.81-6.14-5.32-10.56-11.1-11.73l-0.72-9.29
			C173.17,27.49,180.75,37.51,182.29,48.33z"/>
		<path class="st0" d="M188.25,27.04h11.19l1.17,6.95c1.99-3.34,7.04-8.12,14.71-8.12c11.1,0,17.32,5.96,19.22,19.31l4.24,30.68
			h-11.1l-4.15-29.96c-0.81-5.5-5.32-9.29-10.2-9.29c-5.32,0-9.2,3.34-11.55,8.12l1.8,11.64H192.4L188.25,27.04z"/>
		<path class="st0" d="M245.37,51.76c-2.07-14.8,7.31-25.9,21.29-25.9c7.4,0,12.81,4.33,14.71,7.04l-0.81-5.87h10.83l4.87,33.93
			c0.63,4.06,1.89,6.59,4.51,6.59c0.81,0,1.53-0.18,1.81-0.72l3.43,5.5c-1.08,2.44-4.15,4.6-9.2,4.6c-3.25,0-8.57-1.62-10.38-6.59
			l-3.88-27.43c-2.26-3.88-7.31-8.12-14.26-8.12c-8.12,0-13.44,6.41-12.09,15.88c1.26,8.75,7.85,16.15,15.61,17.14l0.72,9.11
			C258.99,76.58,247.26,65.48,245.37,51.76z"/>
		<path class="st0" d="M307.9,27.04H319l0.99,5.68c1.71-3.79,5.14-6.86,11.82-6.86c1.99,0,4.06,0.54,5.68,1.53l-1.71,10.92
			c-1.08-1.26-2.89-2.62-5.59-2.62c-4.69,0-7.49,3.07-8.93,7.76l1.9,12.9h-11.1L307.9,27.04z"/>
		<path class="st0" d="M343.63,11.7c-0.45-3.52,1.89-7.04,6.23-7.04c3.61,0,6.23,2.8,6.59,5.77c0.54,3.43-1.53,6.95-5.95,6.95
			C346.52,17.38,344.08,14.59,343.63,11.7z M346.7,27.49l11.1-0.72l6.86,49.08h-11.19L346.7,27.49z"/>
	</g>
	<path class="st0" d="M0.25,101.14C-1.68,87.44,7.78,79.26,24.6,79.26c8.64,0,15.26,3.31,17.46,5.24l1.38,12.68
		c-3.49-3.77-11.03-7.08-18.56-7.08c-7.17,0-13.6,2.02-12.68,8.64l2.3,18.01C7.32,113.91,1.35,109.32,0.25,101.14z M5.67,144.79
		l-1.75-14.7c2.39,3.58,10.2,8.64,19.39,10.02l0.92,11.03C13.67,150.12,7.69,146.36,5.67,144.79z M41.51,130.55
		c-0.55-3.49-2.76-5.97-6.34-7.72l-1.19-12.5c10.38,2.94,17.83,7.08,19.39,18.29c1.38,10.02-2.48,16.73-9.65,19.94L41.51,130.55z"/>
	<path class="st0" d="M59.07,84.69c-0.46-3.58,1.93-7.17,6.34-7.17c3.68,0,6.34,2.85,6.71,5.88c0.55,3.49-1.56,7.08-6.07,7.08
		C62.01,90.48,59.53,87.63,59.07,84.69z M62.19,100.77l11.3-0.74l6.98,50h-11.4L62.19,100.77z"/>
	<path class="st0" d="M85.99,100.31h11.4l1.19,7.08c2.02-3.4,7.17-8.27,14.98-8.27c11.3,0,17.65,6.07,19.58,19.67l4.32,31.25h-11.3
		l-4.23-30.51c-0.83-5.61-5.42-9.47-10.38-9.47c-5.42,0-9.37,3.4-11.76,8.27l1.84,11.86h-11.4L85.99,100.31z"/>
	<path class="st0" d="M140.58,100.31h7.81l-2.02-14.52l11.3-0.64l2.11,15.16h12.68l1.38,9.56h-31.89L140.58,100.31z M153.08,133.76
		l-0.46-3.58h11.4l0.37,2.85c0.74,4.96,4.14,7.9,8.09,7.9c2.85,0,4.87-0.74,6.25-2.3l3.68,8.36c-1.93,2.3-5.79,4.32-11.3,4.32
		C161.26,151.32,154.92,146.26,153.08,133.76z"/>
	<path class="st0" d="M194.99,102.61l3.4,26.01c1.47,8.18,9.74,12.87,18.1,12.87c6.99,0,13.33-1.47,16.63-4.41l3.49,8.64
		c-3.68,3.22-11.12,5.61-20.68,5.61c-16.08,0-27.75-9.74-29.87-25C184.61,116.12,187.82,107.2,194.99,102.61z M234.23,122
		c0.28,2.48,0.18,5.42-0.09,6.71l-19.21,0.28l-1.19-8.64l9.37,0.37c-0.83-6.25-5.42-10.75-11.3-11.95l-0.73-9.47
		C224.95,100.77,232.67,110.97,234.23,122z"/>
	<path class="st0" d="M238.46,100.31h7.81l-2.02-14.52l11.3-0.64l2.11,15.16h12.68l1.38,9.56h-31.89L238.46,100.31z M250.96,133.76
		l-0.46-3.58h11.4l0.37,2.85c0.74,4.96,4.14,7.9,8.09,7.9c2.85,0,4.87-0.74,6.25-2.3l3.68,8.36c-1.93,2.3-5.79,4.32-11.3,4.32
		C259.14,151.32,252.8,146.26,250.96,133.76z"/>
	<path class="st0" d="M280.37,84.69c-0.46-3.58,1.93-7.17,6.34-7.17c3.68,0,6.34,2.85,6.71,5.88c0.55,3.49-1.56,7.08-6.07,7.08
		C283.31,90.48,280.83,87.63,280.37,84.69z M283.49,100.77l11.3-0.74l6.99,50h-11.4L283.49,100.77z"/>
	<path class="st0" d="M317.59,103.99l2.66,20.86c1.2,8.55,8.55,16.63,19.48,16.63c6.34,0,11.21-1.75,13.14-4.6l4.04,9.37
		c-3.58,2.76-8.73,5.06-17,5.06c-17.19,0-28.95-11.86-30.88-25.46C307.85,116.95,310.97,108.77,317.59,103.99z M333.49,99.12
		c6.16,0,12.04,1.38,16.45,3.86l-2.3,10.2c-2.76-2.3-7.72-4.14-13.33-4.14L333.49,99.12z"/>
	<path class="st0" d="M358.12,84.69c-0.46-3.58,1.93-7.17,6.34-7.17c3.68,0,6.34,2.85,6.71,5.88c0.55,3.49-1.56,7.08-6.07,7.08
		C361.06,90.48,358.58,87.63,358.12,84.69z M361.24,100.77l11.3-0.74l6.99,50h-11.4L361.24,100.77z"/>
</g>
</svg>
